<?xml version="1.0" encoding="utf-8"?>
<!-- Generator: Adobe Illustrator 16.0.0, SVG Export Plug-In . SVG Version: 6.00 Build 0)  -->
<!DOCTYPE svg PUBLIC "-//W3C//DTD SVG 1.1//EN" "http://www.w3.org/Graphics/SVG/1.1/DTD/svg11.dtd">
<svg version="1.1" id="Layer_1" xmlns="http://www.w3.org/2000/svg" xmlns:xlink="http://www.w3.org/1999/xlink" x="0px" y="0px"
	 width="32px" height="32px" viewBox="0 0 32 32" enable-background="new 0 0 32 32" xml:space="preserve">
<g>
	<path fill="#FFCC07" d="M16,8c-4.417,0-8,3.582-8,8.001c0,4.418,3.583,7.998,8,7.998c4.419,0,8-3.58,8-7.998
		C23.999,11.582,20.419,8,16,8z M16,23C12.141,23,9,19.859,9,16.001C9,12.141,12.141,9,16,9c3.861,0,7,3.141,7,7.001
		C23,19.859,19.86,23,16,23z"/>
	<rect x="16" y="1" fill="#FFCC07" width="1" height="6"/>
	<rect x="16" y="25" fill="#FFCC07" width="1" height="6"/>
	<rect x="25" y="16.001" fill="#FFCC07" width="6" height="0.999"/>
	<rect x="1" y="16.001" fill="#FFCC07" width="6" height="0.999"/>
	
		<rect x="7.479" y="21.486" transform="matrix(-0.7066 -0.7076 0.7076 -0.7066 -3.7089 47.4339)" fill="#FFCC07" width="1.001" height="6"/>
	
		<rect x="4.978" y="7.015" transform="matrix(0.7071 0.7071 -0.7071 0.7071 7.6515 -3.441)" fill="#FFCC07" width="6.001" height="1"/>
	
		<rect x="21.95" y="23.986" transform="matrix(-0.7072 -0.707 0.707 -0.7072 25.2817 59.442)" fill="#FFCC07" width="6" height="1.001"/>
	
		<rect x="24.45" y="4.514" transform="matrix(0.7071 0.7071 -0.7071 0.7071 12.6214 -15.441)" fill="#FFCC07" width="1" height="6.001"/>
</g>
</svg>
