<?xml version="1.0" encoding="utf-8"?>
<!-- Generator: Adobe Illustrator 16.0.0, SVG Export Plug-In . SVG Version: 6.00 Build 0)  -->
<!DOCTYPE svg PUBLIC "-//W3C//DTD SVG 1.1//EN" "http://www.w3.org/Graphics/SVG/1.1/DTD/svg11.dtd">
<svg version="1.1" id="Layer_1" xmlns="http://www.w3.org/2000/svg" xmlns:xlink="http://www.w3.org/1999/xlink" x="0px" y="0px"
	 width="32px" height="32px" viewBox="0 0 32 32" enable-background="new 0 0 32 32" xml:space="preserve">
<g>
	<g>
		<path fill="#92D3EA" d="M19.954,19.019c-0.314-0.137-0.679,0.008-0.814,0.321l-0.743,1.719l-0.269,0.618l-0.267,0.619
			l-0.254,0.586l-1.368,3.161c-0.137,0.314,0.008,0.678,0.322,0.813c0.079,0.035,0.162,0.052,0.245,0.052
			c0.238,0,0.466-0.14,0.567-0.373l1.581-3.653l0.254-0.586l0.269-0.619l0.267-0.618l0.531-1.228
			C20.412,19.519,20.268,19.154,19.954,19.019z"/>
		<path fill="#92D3EA" d="M16.771,19.745c0.137-0.314-0.008-0.679-0.32-0.814c-0.313-0.136-0.679,0.008-0.814,0.321l-0.783,1.807
			l-0.269,0.618l-0.269,0.619l-0.253,0.586l-2.495,5.752c-0.137,0.313,0.008,0.678,0.321,0.814c0.08,0.035,0.164,0.052,0.245,0.052
			c0.239,0,0.467-0.14,0.568-0.373l2.709-6.245l0.254-0.586l0.269-0.619l0.269-0.618L16.771,19.745z"/>
		<path fill="#92D3EA" d="M12.127,22.296l0.268-0.619l0.269-0.618l0.605-1.401c0.136-0.313-0.009-0.678-0.322-0.814
			c-0.313-0.135-0.678,0.008-0.813,0.322l-0.819,1.894l-0.268,0.618l-0.269,0.619l-0.253,0.586l-1.372,3.167
			c-0.136,0.314,0.009,0.678,0.322,0.813c0.08,0.035,0.164,0.052,0.246,0.052c0.239,0,0.467-0.14,0.568-0.373l1.585-3.659
			L12.127,22.296z"/>
	</g>
	<path fill="#CCCACA" d="M24.821,8.628C23.437,4.946,20.066,2.5,16.104,2.5c-5.219,0-9.326,4.247-9.326,9.466
		c0,0.025,0,0.051,0,0.076c-0.557-0.051-0.695-0.076-0.975-0.076C3.192,11.966,1,14.089,1,16.699c0,2.611,2.055,4.732,4.664,4.732
		h3.654l0.399-1.113H5.664c-1.995,0-3.619-1.625-3.619-3.619c0-1.996,1.624-3.62,3.619-3.62c0.42,0,0.839,0.076,1.247,0.225
		l0.834,0.306l-0.088-0.883c-0.031-0.304-0.044-0.539-0.044-0.762c0-4.605,3.747-8.352,8.353-8.352c3.618,0,6.807,2.311,7.934,5.75
		l0.13,0.396l0.567-0.021c2.917,0,5.29,2.373,5.29,5.29c0,2.917-2.373,5.29-5.29,5.29h-2.542l-0.399,1.113h2.941
		c3.531,0,6.403-2.873,6.403-6.403C31,11.573,28.248,8.748,24.821,8.628z"/>
</g>
</svg>
