<?xml version="1.0" encoding="utf-8"?>
<!-- Generator: Adobe Illustrator 16.0.0, SVG Export Plug-In . SVG Version: 6.00 Build 0)  -->
<!DOCTYPE svg PUBLIC "-//W3C//DTD SVG 1.1//EN" "http://www.w3.org/Graphics/SVG/1.1/DTD/svg11.dtd">
<svg version="1.1" id="Layer_1" xmlns="http://www.w3.org/2000/svg" xmlns:xlink="http://www.w3.org/1999/xlink" x="0px" y="0px"
	 width="32px" height="32px" viewBox="0 0 32 32" enable-background="new 0 0 32 32" xml:space="preserve">
<path fill="none" d="M13.566,17.836c0.247,0,0.493,0.026,0.734,0.079c0.102-2.694,1.819-4.987,4.201-5.942
	c-1.087-1.066-2.572-1.726-4.21-1.726c-3.317,0-6.018,2.698-6.018,6.016c0,1.732,0.74,3.291,1.915,4.389
	C10.586,19.078,11.988,17.836,13.566,17.836z"/>
<g>
	<g>
		<path fill="#FECC08" d="M14.103,9.214c-3.753,0-6.806,3.053-6.806,6.807c0,2.113,0.962,4.073,2.641,5.377l0.102,0.078
			l-0.007-0.129c-0.001-0.025-0.004-0.052-0.007-0.076c-0.004-0.027-0.009-0.054-0.009-0.081c0-0.259,0.037-0.528,0.117-0.848
			l0.008-0.033l-0.024-0.024c-1.2-1.122-1.861-2.637-1.861-4.264c0-3.223,2.623-5.845,5.847-5.845c1.536,0,2.987,0.596,4.091,1.677
			l0.027,0.027l0.036-0.015c0.27-0.109,0.561-0.2,0.885-0.279l0.097-0.023l-0.065-0.073C17.878,10.044,16.03,9.214,14.103,9.214z"/>
		<rect x="13.651" y="3.311" fill="#FECC08" width="0.961" height="5.179"/>
		<rect x="13.651" y="24.755" fill="#FECC08" width="0.961" height="3.977"/>
		<rect x="1" y="15.962" fill="#FECC08" width="5.178" height="0.96"/>
		<polygon fill="#FECC08" points="4.816,24.63 4.774,24.671 5.453,25.349 9.073,21.728 9.115,21.687 8.436,21.009 		"/>
		<polygon fill="#FECC08" points="8.436,11.035 9.115,10.355 5.495,6.735 5.453,6.693 4.774,7.374 8.395,10.993 		"/>
		<polygon fill="#FECC08" points="22.749,6.693 19.13,10.313 19.088,10.355 19.767,11.035 23.388,7.416 23.43,7.374 		"/>
	</g>
	<path fill="#CCCACA" d="M26.741,15.497c-0.974-2.489-3.409-4.154-6.09-4.154c-0.525,0-1.033,0.069-1.522,0.188
		c-0.307,0.074-0.607,0.165-0.895,0.281c-2.337,0.938-4.023,3.188-4.123,5.831c-0.236-0.052-0.479-0.077-0.721-0.077
		c-1.549,0-2.925,1.219-3.313,2.763c-0.07,0.28-0.119,0.566-0.119,0.862c0,0.054,0.014,0.105,0.017,0.16
		c0.087,1.861,1.64,3.463,3.416,3.463h0.319h0.845h7.743h0.905h3.328c2.422,0,4.469-2.135,4.469-4.662
		C31,17.719,29.06,15.611,26.741,15.497z M26.531,23.825h-4.03H21.31h-6.755H13.71h-0.319c-1.023,0-1.939-0.762-2.289-1.767
		c-0.096-0.276-0.158-0.566-0.158-0.868c0-0.061,0.014-0.118,0.018-0.179c0.094-1.298,1.161-2.363,2.43-2.363
		c0.315,0,0.684,0.021,1.033,0.184l0.753,0.295l-0.071-0.94c-0.007-0.098-0.013-0.196-0.013-0.293c0-2.46,1.605-4.549,3.822-5.281
		c0.282-0.093,0.577-0.161,0.878-0.208c0.28-0.044,0.565-0.074,0.858-0.074c2.356,0,4.434,1.48,5.224,3.69
		c0.015,0.043,0.038,0.082,0.053,0.126l0.114,0.349l0.319-0.011l0.13-0.004l0.04-0.004c1.855,0,3.481,1.718,3.481,3.675
		C30.013,22.109,28.387,23.825,26.531,23.825z"/>
</g>
</svg>
