<?xml version="1.0" encoding="utf-8"?>
<!-- Generator: Adobe Illustrator 16.0.0, SVG Export Plug-In . SVG Version: 6.00 Build 0)  -->
<!DOCTYPE svg PUBLIC "-//W3C//DTD SVG 1.1//EN" "http://www.w3.org/Graphics/SVG/1.1/DTD/svg11.dtd">
<svg version="1.1" id="Layer_1" xmlns="http://www.w3.org/2000/svg" xmlns:xlink="http://www.w3.org/1999/xlink" x="0px" y="0px"
	 width="32px" height="32px" viewBox="0 0 32 32" enable-background="new 0 0 32 32" xml:space="preserve">
<g>
	<path fill="#CCCACA" d="M25.45,16.007c-1.243-3.308-4.628-5.505-8.188-5.505c-4.688,0-8.735,3.814-8.735,8.503
		c0,0.022,0,0.045,0,0.068c0-0.045-0.267-0.068-0.518-0.068c-2.345,0-4.134,1.906-4.134,4.251c0,2.344,2.022,4.251,4.367,4.251
		h17.005c3.172,0,5.752-2.58,5.752-5.752C31,18.65,28.528,16.113,25.45,16.007z M25.248,26.507H8.243
		c-1.792,0-3.251-1.459-3.251-3.251c0-1.793,1.459-3.251,3.251-3.251c0.377,0,0.753,0.068,1.12,0.202l0.749,0.274l-0.079-0.793
		c-0.027-0.273-0.039-0.484-0.039-0.684c0-4.137,3.365-7.503,7.502-7.503c3.25,0,6.114,2.076,7.126,5.165l0.116,0.355l0.51-0.019
		c2.62,0,4.752,2.132,4.752,4.751C30,24.375,27.868,26.507,25.248,26.507z"/>
	<path opacity="0.7" fill="#E0E0E0" d="M8.726,17.504c0.077-1,0.169-1,0.284-1H4.232c-1.235,0-2.241-1.255-2.241-2.491
		s1.006-2.366,2.241-2.366c0.2,0,0.413-0.027,0.649,0.045l0.725,0.191l-0.081-0.77c-0.022-0.21-0.033-0.413-0.033-0.604
		c0-3.034,2.469-5.505,5.502-5.505c2.434,0,4.605,1.631,5.282,3.97l0.102,0.351l0.366,0.009c0.784,0.02,1.495,0.302,2.051,0.763
		c0.559,0.081,1.1,0.216,1.623,0.396c-0.672-1.167-1.87-1.985-3.289-2.135C16.226,5.774,13.77,4,11.011,4
		c-3.585,0-6.484,2.917-6.484,6.502c0,0.01,0,0.021,0,0.031c0-0.008-0.191-0.012-0.277-0.012C2.462,10.521,1,12.225,1,14.013
		c0,1.787,1.445,3.491,3.232,3.491H8.726z"/>
</g>
</svg>
