<?xml version="1.0" encoding="utf-8"?>
<!-- Generator: Adobe Illustrator 16.0.0, SVG Export Plug-In . SVG Version: 6.00 Build 0)  -->
<!DOCTYPE svg PUBLIC "-//W3C//DTD SVG 1.1//EN" "http://www.w3.org/Graphics/SVG/1.1/DTD/svg11.dtd">
<svg version="1.1" id="Layer_1" xmlns="http://www.w3.org/2000/svg" xmlns:xlink="http://www.w3.org/1999/xlink" x="0px" y="0px"
	 width="32px" height="32px" viewBox="0 0 32 32" enable-background="new 0 0 32 32" xml:space="preserve">
<g>
	<path fill="#CCCACA" d="M25.536,9.697c-1.224-3.256-4.326-5.419-7.83-5.419c-2.208,0-4.214,0.867-5.71,2.269
		c-0.168-0.062-0.341-0.11-0.515-0.154c-0.195,0.321-0.435,0.615-0.713,0.869c0.165,0.019,0.329,0.047,0.484,0.085
		c-1.186,1.444-1.883,3.291-1.883,5.302v0.067c-0.492-0.045-0.509-0.067-0.756-0.067c-0.62,0-1.217,0.139-1.746,0.383
		c-0.097-0.177-0.173-0.364-0.243-0.554c-0.257,0.226-0.545,0.417-0.854,0.568c0.072,0.172,0.15,0.341,0.24,0.504
		c-0.972,0.768-1.599,2.052-1.599,3.384c0,2.308,1.877,4.284,4.185,4.284h2.827l0.4-0.984H8.597c-1.765,0-3.2-1.536-3.2-3.3
		c0-1.765,1.436-3.25,3.2-3.25c0.372,0,0.743,0.042,1.103,0.174l0.736,0.258l-0.076-0.787c-0.027-0.269-0.039-0.48-0.039-0.677
		c0-4.072,3.313-7.388,7.386-7.388c3.199,0,6.018,2.043,7.016,5.084l0.114,0.349l0.502-0.019c2.579,0,4.678,2.198,4.678,4.777
		c0,2.58-2.099,4.778-4.678,4.778h-2.065l-0.4,0.984h2.466c3.121,0,5.662-2.64,5.662-5.762C31,12.4,28.567,9.803,25.536,9.697z"/>
	<g>
		<path fill="#FFCC07" d="M10.322,7.232c0.313,0,0.633,0.042,0.924,0.113c0.151-0.188,0.31-0.369,0.48-0.541
			c0.049-0.049,0.102-0.091,0.151-0.137c0.039-0.041,0.069-0.086,0.108-0.125c-0.521-0.188-1.08-0.295-1.666-0.295
			c-2.72,0-4.924,2.205-4.924,4.924c0,0.86,0.224,1.667,0.611,2.37c0.271-0.19,0.562-0.363,0.87-0.514
			c-0.003,0.001-0.006,0.003-0.01,0.004c-0.3-0.555-0.482-1.186-0.482-1.86C6.386,8.999,8.151,7.232,10.322,7.232z"/>
		<rect x="9.862" y="2.5" fill="#FFCC07" width="0.985" height="2.954"/>
		<rect x="1" y="10.878" fill="#FFCC07" width="2.954" height="0.985"/>
		
			<rect x="3.621" y="5.456" transform="matrix(0.7074 0.7069 -0.7069 0.7074 5.6967 -1.8629)" fill="#FFCC07" width="2.954" height="0.985"/>
	</g>
	<g>
		<path fill="#92D3EA" d="M21.396,19.782c-0.002-0.009-0.004-0.018-0.006-0.029c-0.016-0.047-0.034-0.091-0.062-0.133
			c-0.002-0.005-0.003-0.006-0.005-0.011c-0.014-0.02-0.029-0.04-0.046-0.058c-0.007-0.007-0.014-0.016-0.021-0.025
			c0,0-0.001,0-0.001-0.001c-0.038-0.035-0.082-0.067-0.128-0.091c-0.002-0.001-0.002-0.001-0.002-0.001
			c-0.02-0.011-0.037-0.022-0.058-0.029c-0.136-0.054-0.275-0.044-0.398,0.004c-0.003,0.001-0.005,0.001-0.007,0.003
			c-0.025,0.01-0.052,0.022-0.076,0.036c-0.035,0.021-0.069,0.043-0.1,0.071c-0.003,0.002-0.007,0.006-0.012,0.008
			c-0.001,0.002-0.001,0.002-0.001,0.002c-0.024,0.025-0.047,0.053-0.067,0.083l0,0c-0.021,0.032-0.04,0.067-0.055,0.104
			l-0.646,1.647c-0.037,0.092-0.043,0.19-0.028,0.282c0.027,0.188,0.15,0.356,0.34,0.433c0.067,0.024,0.135,0.037,0.202,0.037
			c0.219,0,0.429-0.132,0.514-0.351l0.046-0.119l0.601-1.526c0.007-0.016,0.008-0.034,0.012-0.051
			c0.006-0.019,0.013-0.036,0.016-0.054c0.004-0.023,0.004-0.046,0.006-0.069c0-0.009,0.003-0.018,0.003-0.027
			c0-0.006-0.003-0.012-0.003-0.018C21.413,19.861,21.408,19.821,21.396,19.782z"/>
		<path fill="#92D3EA" d="M19.863,22.748c-0.028-0.018-0.054-0.037-0.086-0.051c-0.001,0-0.002,0-0.002,0
			c-0.168-0.066-0.35-0.041-0.494,0.051c-0.097,0.061-0.177,0.148-0.221,0.262l-0.103,0.259l-0.543,1.387
			c-0.056,0.134-0.052,0.286,0.009,0.421c0.057,0.135,0.165,0.236,0.303,0.292l0,0c0.065,0.025,0.133,0.04,0.202,0.04
			c0.229,0,0.429-0.14,0.513-0.352l0.647-1.644c0.019-0.048,0.026-0.097,0.033-0.145c0.002-0.021,0.004-0.04,0.004-0.06
			C20.125,23.015,20.023,22.847,19.863,22.748z"/>
		<path fill="#92D3EA" d="M18.48,25.993c-0.198-0.072-0.438-0.034-0.589,0.117c-0.101,0.103-0.16,0.244-0.16,0.391
			s0.06,0.287,0.16,0.39c0.104,0.104,0.245,0.161,0.392,0.161c0.144,0,0.286-0.057,0.389-0.161c0.102-0.103,0.162-0.246,0.162-0.39
			c0-0.146-0.061-0.286-0.162-0.388C18.618,26.06,18.552,26.018,18.48,25.993z"/>
		<path fill="#92D3EA" d="M18.27,19.988c0.007-0.019,0.014-0.036,0.017-0.054c0.005-0.023,0.006-0.047,0.007-0.069
			c0.001-0.013,0.003-0.021,0.003-0.034c0-0.002,0-0.004,0-0.006c0-0.025-0.004-0.05-0.007-0.073
			c-0.002-0.01-0.002-0.021-0.005-0.031c-0.005-0.028-0.015-0.057-0.024-0.083c-0.003-0.006-0.004-0.014-0.006-0.018
			c-0.055-0.134-0.161-0.246-0.306-0.302c-0.16-0.063-0.329-0.043-0.468,0.036c-0.032,0.018-0.065,0.037-0.097,0.063
			c-0.01,0.009-0.021,0.016-0.03,0.023c-0.026,0.028-0.049,0.058-0.069,0.09c-0.004,0.002-0.006,0.009-0.008,0.013
			c-0.015,0.026-0.03,0.053-0.042,0.081c0,0.002-0.001,0.004-0.002,0.004l-0.793,2.017l-0.113,0.287
			c-0.035,0.087-0.042,0.178-0.033,0.265c0.023,0.195,0.147,0.375,0.343,0.452l0,0c0.067,0.025,0.137,0.037,0.202,0.037
			c0.221,0,0.429-0.131,0.516-0.35l0.053-0.14l0.219-0.552l0.634-1.611C18.264,20.019,18.267,20.003,18.27,19.988z"/>
		<path fill="#92D3EA" d="M16.135,23.925L16.135,23.925c-0.28-0.107-0.605,0.036-0.716,0.311l-0.907,2.305
			c-0.11,0.283,0.03,0.604,0.312,0.716c0,0,0.001,0,0.003,0c0.063,0.025,0.133,0.037,0.201,0.037c0.227,0,0.427-0.136,0.512-0.348
			l0.906-2.304c0.027-0.067,0.04-0.133,0.04-0.201C16.482,24.212,16.349,24.01,16.135,23.925z"/>
		<path fill="#92D3EA" d="M14.32,28.537c-0.198-0.07-0.439-0.031-0.591,0.119c-0.103,0.104-0.16,0.247-0.16,0.39
			c0,0.146,0.058,0.286,0.16,0.393c0.104,0.101,0.245,0.159,0.391,0.159c0.144,0,0.287-0.059,0.389-0.159
			c0.105-0.106,0.162-0.247,0.162-0.393c0-0.143-0.057-0.286-0.162-0.39C14.456,28.603,14.391,28.563,14.32,28.537z"/>
		<path fill="#92D3EA" d="M13.758,21.949c0.067,0.024,0.135,0.037,0.202,0.037c0.216,0,0.421-0.129,0.508-0.342
			c0.001-0.003,0.004-0.006,0.005-0.007l0.665-1.691c0.005-0.013,0.007-0.029,0.01-0.043c0.008-0.02,0.016-0.038,0.019-0.06
			c0.002-0.011,0.002-0.021,0.002-0.031c0.005-0.022,0.009-0.045,0.009-0.066c0-0.004-0.002-0.01-0.002-0.013
			c0-0.007-0.002-0.019-0.002-0.027c-0.004-0.026-0.005-0.051-0.01-0.078c-0.004-0.017-0.012-0.034-0.018-0.05
			c-0.004-0.018-0.007-0.032-0.016-0.047c-0.01-0.027-0.022-0.051-0.037-0.073c-0.004-0.005-0.008-0.015-0.013-0.021
			c-0.009-0.014-0.023-0.028-0.035-0.044c-0.012-0.013-0.019-0.026-0.032-0.038c-0.001-0.002-0.002-0.002-0.003-0.004
			c-0.052-0.051-0.114-0.092-0.184-0.12c-0.176-0.067-0.363-0.041-0.507,0.057l0,0c-0.018,0.009-0.028,0.021-0.042,0.032
			c-0.016,0.012-0.03,0.021-0.044,0.035c-0.026,0.027-0.049,0.055-0.069,0.086c-0.015,0.022-0.026,0.05-0.04,0.074
			c-0.002,0.008-0.005,0.014-0.01,0.021c0,0.003-0.002,0.004-0.003,0.007l-0.665,1.691c-0.055,0.137-0.048,0.283,0.005,0.41
			C13.507,21.779,13.613,21.892,13.758,21.949z"/>
		<path fill="#92D3EA" d="M13.825,23.269c0.014-0.046,0.022-0.096,0.022-0.144c0-0.147-0.061-0.277-0.157-0.377
			c-0.054-0.057-0.116-0.105-0.192-0.135l0,0c-0.211-0.084-0.45-0.02-0.601,0.135c-0.048,0.05-0.088,0.107-0.113,0.175l-0.136,0.346
			l-0.528,1.346c-0.055,0.137-0.053,0.288,0.007,0.424c0.058,0.135,0.166,0.237,0.306,0.292c0.064,0.025,0.13,0.038,0.2,0.038
			c0.228,0,0.43-0.138,0.513-0.35l0.663-1.692C13.816,23.309,13.82,23.288,13.825,23.269z"/>
		<path fill="#92D3EA" d="M12.168,25.998c-0.198-0.071-0.438-0.032-0.59,0.119c-0.102,0.103-0.161,0.244-0.161,0.389
			c0,0.146,0.06,0.288,0.161,0.391c0.104,0.105,0.246,0.162,0.391,0.162s0.285-0.057,0.391-0.162
			c0.103-0.103,0.159-0.244,0.159-0.391c0-0.145-0.057-0.286-0.159-0.389C12.306,26.063,12.239,26.024,12.168,25.998z"/>
	</g>
</g>
</svg>
