<?xml version="1.0" encoding="utf-8"?>
<!-- Generator: Adobe Illustrator 16.0.0, SVG Export Plug-In . SVG Version: 6.00 Build 0)  -->
<!DOCTYPE svg PUBLIC "-//W3C//DTD SVG 1.1//EN" "http://www.w3.org/Graphics/SVG/1.1/DTD/svg11.dtd">
<svg version="1.1" id="Layer_1" xmlns="http://www.w3.org/2000/svg" xmlns:xlink="http://www.w3.org/1999/xlink" x="0px" y="0px"
	 width="32px" height="32px" viewBox="0 0 32 32" enable-background="new 0 0 32 32" xml:space="preserve">
<g>
	<path fill="#CCCACA" d="M24.821,8.128C23.437,4.446,20.066,2,16.104,2c-5.219,0-9.326,4.247-9.326,9.466c0,0.025,0,0.051,0,0.076
		c-0.557-0.051-0.695-0.076-0.975-0.076C3.192,11.466,1,13.589,1,16.199c0,2.611,2.055,4.732,4.664,4.732h3.654l0.399-1.113H5.664
		c-1.995,0-3.619-1.625-3.619-3.619c0-1.996,1.624-3.62,3.619-3.62c0.42,0,0.839,0.076,1.247,0.225l0.834,0.306l-0.088-0.883
		c-0.031-0.304-0.044-0.539-0.044-0.762c0-4.605,3.747-8.352,8.353-8.352c3.618,0,6.807,2.311,7.934,5.75l0.13,0.396l0.567-0.021
		c2.917,0,5.29,2.373,5.29,5.29c0,2.917-2.373,5.29-5.29,5.29h-2.542l-0.399,1.113h2.941c3.531,0,6.403-2.873,6.403-6.403
		C31,11.073,28.248,8.248,24.821,8.128z"/>
	<g>
		<path fill="#92D3EA" d="M20.198,19.041c-0.002-0.01-0.004-0.02-0.006-0.032c-0.018-0.052-0.038-0.101-0.068-0.146
			c-0.002-0.006-0.003-0.007-0.005-0.012c-0.016-0.021-0.032-0.044-0.051-0.063c-0.008-0.008-0.015-0.018-0.022-0.028
			c0,0-0.001,0-0.001-0.001c-0.042-0.039-0.091-0.074-0.141-0.1c-0.003-0.002-0.003-0.002-0.003-0.002
			c-0.021-0.012-0.04-0.024-0.063-0.032c-0.149-0.059-0.303-0.048-0.438,0.005c-0.003,0.001-0.006,0.001-0.008,0.003
			c-0.028,0.011-0.057,0.024-0.084,0.04c-0.038,0.023-0.076,0.047-0.109,0.078c-0.003,0.003-0.008,0.007-0.013,0.009
			c-0.002,0.002-0.002,0.002-0.002,0.002c-0.026,0.028-0.051,0.059-0.074,0.092l0,0c-0.022,0.035-0.044,0.074-0.06,0.114
			l-0.713,1.814c-0.04,0.102-0.047,0.21-0.031,0.312c0.03,0.206,0.166,0.393,0.375,0.477c0.074,0.026,0.148,0.041,0.223,0.041
			c0.241,0,0.473-0.146,0.565-0.387l0.051-0.131l0.662-1.682c0.008-0.018,0.009-0.038,0.013-0.056
			c0.007-0.021,0.014-0.04,0.018-0.06c0.004-0.026,0.004-0.051,0.006-0.076c0-0.01,0.004-0.02,0.004-0.03
			c0-0.007-0.004-0.013-0.004-0.02C20.217,19.128,20.212,19.084,20.198,19.041z"/>
		<path fill="#92D3EA" d="M18.51,22.309c-0.031-0.02-0.06-0.041-0.095-0.056c-0.001,0-0.002,0-0.002,0
			c-0.186-0.073-0.386-0.046-0.545,0.056c-0.106,0.066-0.194,0.163-0.243,0.288l-0.113,0.285l-0.598,1.528
			c-0.062,0.147-0.058,0.314,0.01,0.463c0.063,0.148,0.182,0.261,0.333,0.322l0,0c0.072,0.028,0.146,0.044,0.223,0.044
			c0.252,0,0.473-0.154,0.565-0.388l0.713-1.811c0.021-0.053,0.029-0.106,0.037-0.159c0.002-0.022,0.004-0.044,0.004-0.065
			C18.798,22.603,18.686,22.417,18.51,22.309z"/>
		<path fill="#92D3EA" d="M16.986,25.884c-0.219-0.08-0.482-0.038-0.649,0.129c-0.11,0.113-0.176,0.27-0.176,0.431
			s0.065,0.316,0.176,0.43c0.115,0.114,0.271,0.177,0.432,0.177c0.158,0,0.315-0.063,0.429-0.177
			c0.111-0.113,0.178-0.271,0.178-0.43c0-0.161-0.066-0.315-0.178-0.427C17.138,25.957,17.064,25.911,16.986,25.884z"/>
		<path fill="#92D3EA" d="M16.754,19.268c0.007-0.021,0.015-0.039,0.018-0.059c0.006-0.026,0.007-0.052,0.008-0.077
			c0.001-0.014,0.003-0.023,0.003-0.037c0-0.002,0-0.005,0-0.007c0-0.027-0.004-0.055-0.007-0.08
			c-0.003-0.011-0.003-0.024-0.006-0.035c-0.005-0.031-0.016-0.063-0.026-0.091c-0.004-0.007-0.005-0.016-0.007-0.02
			c-0.061-0.147-0.178-0.271-0.337-0.333c-0.177-0.069-0.362-0.047-0.516,0.04c-0.035,0.02-0.071,0.041-0.106,0.069
			c-0.011,0.01-0.023,0.017-0.033,0.025c-0.029,0.031-0.054,0.063-0.076,0.1c-0.004,0.002-0.007,0.009-0.009,0.014
			c-0.016,0.029-0.033,0.058-0.046,0.089c0,0.003-0.001,0.005-0.001,0.005l-0.875,2.222l-0.125,0.316
			c-0.039,0.096-0.046,0.195-0.036,0.291c0.025,0.216,0.162,0.413,0.377,0.498l0,0c0.074,0.028,0.151,0.041,0.223,0.041
			c0.243,0,0.473-0.144,0.568-0.385l0.059-0.154l0.24-0.607l0.699-1.775C16.747,19.301,16.75,19.284,16.754,19.268z"/>
		<path fill="#92D3EA" d="M14.401,23.604L14.401,23.604c-0.309-0.118-0.667,0.04-0.788,0.343l-1,2.539
			c-0.121,0.312,0.033,0.665,0.344,0.789c0,0,0.001,0,0.003,0c0.069,0.027,0.146,0.04,0.222,0.04c0.249,0,0.47-0.149,0.563-0.383
			l0.999-2.538c0.029-0.074,0.044-0.146,0.044-0.222C14.784,23.921,14.637,23.698,14.401,23.604z"/>
		<path fill="#92D3EA" d="M12.402,28.687c-0.219-0.077-0.484-0.034-0.65,0.131c-0.113,0.114-0.177,0.272-0.177,0.43
			c0,0.16,0.063,0.315,0.177,0.433c0.114,0.11,0.27,0.176,0.43,0.176c0.158,0,0.316-0.065,0.429-0.176
			c0.116-0.117,0.179-0.272,0.179-0.433c0-0.157-0.063-0.315-0.179-0.43C12.552,28.759,12.479,28.716,12.402,28.687z"/>
		<path fill="#92D3EA" d="M11.783,21.429c0.074,0.026,0.148,0.04,0.223,0.04c0.237,0,0.463-0.142,0.559-0.376
			c0.002-0.003,0.005-0.007,0.006-0.008l0.732-1.863c0.006-0.014,0.008-0.032,0.011-0.048c0.009-0.021,0.018-0.042,0.021-0.065
			c0.002-0.012,0.002-0.022,0.002-0.034c0.006-0.024,0.01-0.05,0.01-0.073c0-0.004-0.002-0.011-0.002-0.014
			c0-0.008-0.002-0.021-0.002-0.03c-0.004-0.029-0.006-0.056-0.011-0.086c-0.004-0.019-0.013-0.038-0.02-0.055
			c-0.004-0.02-0.008-0.036-0.018-0.052c-0.011-0.03-0.024-0.057-0.04-0.081c-0.005-0.005-0.009-0.017-0.015-0.023
			c-0.01-0.016-0.025-0.031-0.038-0.049c-0.014-0.014-0.021-0.029-0.036-0.042c-0.001-0.002-0.002-0.002-0.003-0.004
			c-0.057-0.056-0.126-0.102-0.202-0.133c-0.194-0.074-0.4-0.045-0.559,0.063l0,0c-0.02,0.01-0.031,0.022-0.046,0.036
			c-0.018,0.013-0.034,0.023-0.049,0.038c-0.029,0.03-0.054,0.061-0.076,0.095c-0.017,0.025-0.029,0.055-0.044,0.082
			c-0.003,0.009-0.006,0.015-0.011,0.023c0,0.003-0.003,0.005-0.004,0.008l-0.732,1.863c-0.061,0.15-0.053,0.313,0.006,0.452
			C11.506,21.241,11.623,21.365,11.783,21.429z"/>
		<path fill="#92D3EA" d="M11.857,22.882c0.015-0.051,0.024-0.105,0.024-0.158c0-0.162-0.066-0.306-0.174-0.415
			c-0.059-0.063-0.128-0.116-0.212-0.148l0,0c-0.232-0.093-0.495-0.021-0.661,0.148c-0.053,0.055-0.097,0.118-0.125,0.192
			l-0.149,0.381l-0.582,1.482c-0.061,0.151-0.059,0.317,0.008,0.467c0.063,0.149,0.183,0.262,0.336,0.322
			c0.071,0.028,0.144,0.042,0.221,0.042c0.251,0,0.474-0.151,0.565-0.386l0.73-1.864C11.848,22.926,11.852,22.903,11.857,22.882z"/>
		<path fill="#92D3EA" d="M10.031,25.889c-0.219-0.078-0.483-0.035-0.65,0.132c-0.111,0.113-0.177,0.269-0.177,0.428
			c0,0.162,0.065,0.317,0.177,0.431c0.114,0.116,0.271,0.179,0.431,0.179s0.314-0.063,0.431-0.179
			c0.112-0.113,0.175-0.269,0.175-0.431c0-0.159-0.063-0.314-0.175-0.428C10.183,25.961,10.109,25.918,10.031,25.889z"/>
	</g>
</g>
</svg>
